<svg xmlns="http://www.w3.org/2000/svg" viewBox="0 0 128 128">
  <defs>
    <linearGradient id="g" x1="0" x2="1" y1="0" y2="1">
      <stop offset="0" stop-color="#c79d62"/>
      <stop offset="1" stop-color="#8b5e34"/>
    </linearGradient>
  </defs>
  <rect x="8" y="8" width="112" height="112" rx="24" fill="#f2e2c3"/>
  <path d="M30 30h30c8 0 14 6 14 14v52c-3-5-8-8-14-8H30z" fill="url(#g)"/>
  <path d="M98 30H68c-8 0-14 6-14 14v52c3-5 8-8 14-8h30z" fill="#a87343"/>
  <rect x="61" y="28" width="6" height="72" rx="2" fill="#6f4a2c"/>
  <rect x="36" y="40" width="22" height="4" rx="2" fill="#f5e7ce"/>
  <rect x="36" y="50" width="18" height="4" rx="2" fill="#f5e7ce"/>
  <rect x="72" y="40" width="22" height="4" rx="2" fill="#f5e7ce"/>
  <rect x="72" y="50" width="18" height="4" rx="2" fill="#f5e7ce"/>
</svg>

